<svg width="312" height="312" viewBox="0 0 312 312" fill="none" xmlns="http://www.w3.org/2000/svg">
<path d="M94.7649 310.837C95.589 310.577 97.2294 309.331 98.41 308.069C99.756 306.63 100.765 305.001 101.115 303.701C101.516 302.211 101.679 292.424 101.695 268.878C101.718 236.436 101.706 236.109 100.712 234.161C100.159 233.079 98.8177 231.434 97.7311 230.503C96.3821 229.349 94.9396 228.643 93.1842 228.278C91.7701 227.985 89.715 227.894 88.6173 228.077C87.5196 228.26 85.8474 228.802 84.9013 229.281C83.9552 229.76 82.6386 230.797 81.9756 231.585C81.3126 232.373 80.4847 233.824 80.136 234.81C79.6302 236.239 79.5019 243.278 79.5019 269.589C79.5019 302.577 79.5019 302.577 80.844 305.31C81.5849 306.819 82.9288 308.61 83.844 309.308C84.7558 310.003 86.5014 310.848 87.7229 311.185C88.9445 311.522 90.6916 311.688 91.6052 311.554C92.5189 311.42 93.9408 311.097 94.7649 310.837ZM131.625 310.713C132.494 310.35 134.025 309.333 135.026 308.454C136.027 307.575 137.345 305.786 137.953 304.479C139.044 302.136 139.06 301.87 139.065 285.903C139.069 269.705 139.069 269.705 137.664 269.122C136.89 268.802 135.276 267.491 134.077 266.208C132.877 264.926 131.485 262.973 130.984 261.868C130.37 260.516 130.08 258.85 130.098 256.774C130.113 255.077 130.374 253.009 130.681 252.178C130.987 251.346 131.923 249.698 132.759 248.515C133.686 247.206 135.311 245.783 136.912 244.879C139.544 243.393 139.544 243.393 139.544 238.794C139.544 234.637 139.386 233.807 137.894 230.147C136.986 227.921 136.028 224.581 135.765 222.725C135.455 220.542 135.444 218.107 135.734 215.824C135.98 213.884 136.62 211.183 137.157 209.823C137.693 208.462 138.843 206.242 139.713 204.888C140.583 203.535 142.29 201.514 143.507 200.398C144.724 199.282 146.71 197.741 147.921 196.974C149.131 196.206 151.533 195.094 153.258 194.502C155.687 193.67 157.447 193.427 161.055 193.429C165.715 193.431 165.715 193.431 165.561 177.045C165.406 160.664 165.406 160.658 164.143 157.191C163.448 155.284 162.016 152.4 160.961 150.783C159.906 149.167 157.806 146.637 156.295 145.161C154.784 143.686 152.307 141.696 150.792 140.74C149.277 139.784 146.607 138.434 144.859 137.74C141.742 136.502 141.433 136.475 128.866 136.31C120.536 136.2 115.054 136.332 113.202 136.683C111.636 136.982 108.326 138.201 105.846 139.394C102.012 141.237 100.732 142.175 97.302 145.652C95.083 147.902 92.5709 150.932 91.7194 152.385C90.8679 153.839 89.7568 156.207 89.2502 157.649C88.7436 159.09 88.1069 161.638 87.8354 163.312C87.564 164.986 87.3401 167.886 87.3381 169.757C87.3361 171.628 87.4639 173.497 87.6227 173.91C87.8389 174.474 88.5875 174.661 90.6217 174.661C92.1127 174.661 94.4928 175 95.9106 175.414C97.3286 175.828 99.877 176.932 101.574 177.867C103.271 178.802 105.969 180.895 107.569 182.519C109.487 184.464 111.124 186.759 112.369 189.245C113.712 191.929 114.419 194.122 114.816 196.838C115.227 199.65 115.239 201.502 114.862 203.866C114.58 205.631 113.931 208.264 113.421 209.717C112.91 211.169 111.716 213.527 110.767 214.956C109.818 216.385 108.082 218.581 106.909 219.835C104.776 222.115 104.776 222.115 106.476 223.996C107.411 225.03 108.711 226.688 109.365 227.679C110.02 228.671 110.935 230.443 111.399 231.618C112.17 233.571 112.264 236.648 112.499 267.453C112.732 298.115 112.831 301.35 113.592 303.333C114.052 304.533 115.327 306.423 116.426 307.534C117.525 308.645 119.004 309.855 119.714 310.223C120.423 310.591 121.811 311.094 122.799 311.342C123.786 311.59 125.821 311.698 127.32 311.583C128.82 311.468 130.756 311.076 131.625 310.713ZM171.334 310.41C172.254 309.938 173.476 309.048 174.051 308.432C174.626 307.816 175.559 306.265 176.125 304.985C177.145 302.68 177.155 302.358 177.257 270.105C177.36 237.551 177.36 237.551 182.399 217.379C187.157 198.332 187.52 197.134 188.892 195.901C189.906 194.991 190.86 194.596 192.046 194.596C193.321 194.596 194.078 194.95 195.066 196.009C195.792 196.786 196.483 197.929 196.601 198.549C196.72 199.169 196.131 202.538 195.292 206.036C194.454 209.533 192.412 217.521 190.756 223.787C187.745 235.178 187.745 235.178 187.595 244.552C187.445 253.926 187.445 253.926 212.909 253.926C238.374 253.926 238.374 253.926 242.144 250.38C244.217 248.43 247.183 246.05 248.736 245.092C250.289 244.133 251.559 243.079 251.559 242.749C251.559 242.418 249.764 236.949 247.57 230.594C245.375 224.239 242.903 217.118 242.076 214.768C241.249 212.419 238.527 204.837 236.028 197.919C233.529 191.001 230.674 183.353 229.685 180.924C228.696 178.494 227.3 175.504 226.584 174.279C225.868 173.053 224.093 170.861 222.639 169.407C221.054 167.821 218.695 166.124 216.747 165.166C214.066 163.849 212.813 163.534 209.584 163.364C207.432 163.251 204.521 163.405 203.116 163.707C201.711 164.008 198.954 165.025 196.989 165.966C194.268 167.27 192.5 168.596 189.578 171.526C187.467 173.642 184.861 176.868 183.786 178.696C182.711 180.523 180.993 184.154 179.969 186.765C178.944 189.375 177.081 194.822 175.828 198.868C174.574 202.914 173.389 206.412 173.194 206.641C172.998 206.87 172.129 206.622 171.261 206.09C170.394 205.558 168.419 204.757 166.874 204.311C164.929 203.75 163.028 203.567 160.703 203.718C158.697 203.848 156.387 204.358 154.97 204.984C153.665 205.561 151.671 206.931 150.539 208.028C149.408 209.125 147.914 211.09 147.219 212.395C146.107 214.486 145.956 215.306 145.956 219.278C145.956 223.29 146.101 224.063 147.276 226.296C148.002 227.675 149.371 229.663 150.319 230.712C151.267 231.762 152.938 233.145 154.033 233.787C155.128 234.428 157.015 235.291 158.226 235.704C159.437 236.116 160.428 236.736 160.428 237.082C160.428 237.427 159.649 239.66 158.697 242.043C157.402 245.286 156.435 246.9 154.852 248.46C153.689 249.607 151.745 251.024 150.531 251.61C149.172 252.266 147.108 252.753 145.155 252.878C142.571 253.043 141.787 253.292 140.907 254.228C140.225 254.955 139.829 255.965 139.829 256.98C139.829 257.862 140.123 258.939 140.482 259.372C140.842 259.805 141.772 260.488 142.549 260.89C143.39 261.325 145.097 261.605 146.766 261.581C148.308 261.558 150.464 261.304 151.558 261.013C152.651 260.722 154.958 259.745 156.684 258.842C158.41 257.939 160.427 256.569 161.166 255.798C161.904 255.027 163.055 253.276 163.723 251.907C164.539 250.233 165.343 249.278 166.176 248.993C166.857 248.76 167.985 248.712 168.683 248.887C169.384 249.063 170.367 249.889 170.883 250.735C171.426 251.625 171.817 253.115 171.818 254.298C171.819 255.511 171.359 257.234 170.679 258.57C170.051 259.801 168.396 261.947 167 263.339C165.258 265.076 163.162 266.489 160.312 267.848C156.16 269.827 156.16 269.827 156.277 287.189C156.394 304.552 156.394 304.552 157.824 306.864C158.61 308.136 159.964 309.591 160.833 310.098C161.702 310.606 163.087 311.19 163.912 311.396C164.737 311.602 166.368 311.658 167.537 311.519C168.705 311.381 170.414 310.882 171.334 310.41ZM215.943 310.063C217.575 309.246 219.149 307.978 220.095 306.718C220.933 305.602 221.84 303.893 222.11 302.921C222.409 301.844 222.602 293.966 222.604 282.761C222.606 264.368 222.606 264.368 209.791 264.368C196.976 264.368 196.976 264.368 196.976 282.706C196.976 295.388 197.148 301.618 197.534 302.906C197.841 303.931 198.915 305.704 199.921 306.847C200.927 307.989 202.457 309.361 203.321 309.895C204.185 310.429 205.727 311.074 206.748 311.328C207.769 311.581 209.664 311.697 210.959 311.584C212.254 311.471 214.497 310.787 215.943 310.063ZM280.589 309.255C282.589 308.676 285.469 307.47 286.99 306.576C288.51 305.682 291.36 303.344 293.323 301.38C295.669 299.035 297.507 296.642 298.684 294.403C299.668 292.529 300.895 289.349 301.41 287.337C301.927 285.315 302.346 282.107 302.346 280.168C302.346 278.238 302.002 275.122 301.581 273.243C301.161 271.364 299.94 268.118 298.869 266.03C297.46 263.284 295.927 261.247 293.334 258.673C290.765 256.123 288.652 254.552 285.888 253.138C283.766 252.052 280.374 250.795 278.35 250.345C275.57 249.727 273.443 249.591 269.642 249.788C266.478 249.952 263.643 250.391 261.999 250.972C260.562 251.481 257.999 252.593 256.304 253.444C254.192 254.505 252.022 256.207 249.415 258.85C246.575 261.728 245.16 263.632 243.84 266.351C242.868 268.355 241.753 271.346 241.364 272.996C240.975 274.647 240.657 277.706 240.657 279.794C240.657 281.883 240.971 284.925 241.355 286.554C241.74 288.184 242.666 290.854 243.414 292.487C244.161 294.121 245.805 296.819 247.065 298.484C248.326 300.149 250.547 302.458 252.001 303.616C253.455 304.775 256.04 306.435 257.745 307.307C259.45 308.179 261.799 309.153 262.966 309.472C264.132 309.79 266.155 310.222 267.46 310.43C268.765 310.639 271.435 310.696 273.393 310.558C275.351 310.42 278.589 309.833 280.589 309.255ZM266.748 296.227C266.095 296.013 264.633 295.364 263.499 294.784C262.365 294.205 260.479 292.773 259.308 291.602C258.137 290.431 256.647 288.311 255.996 286.89C255.346 285.469 254.695 283.156 254.55 281.75C254.404 280.337 254.554 278.054 254.885 276.646C255.215 275.245 256.003 273.202 256.637 272.107C257.271 271.012 258.642 269.263 259.684 268.221C260.726 267.179 262.5 265.88 263.626 265.335C264.752 264.791 266.874 264.093 268.342 263.785C270.337 263.366 271.785 263.357 274.072 263.751C275.756 264.039 278.131 264.774 279.351 265.383C280.571 265.992 282.581 267.598 283.818 268.951C285.055 270.304 286.574 272.444 287.194 273.705C288.107 275.564 288.323 276.763 288.332 280.033C288.344 283.416 288.142 284.499 287.093 286.735C286.405 288.202 285.074 290.253 284.135 291.292C283.197 292.331 281.09 293.898 279.453 294.773C276.8 296.193 276.016 296.379 272.206 296.491C269.857 296.56 267.401 296.441 266.748 296.227ZM276.099 286.725C277.261 285.883 278.301 284.59 278.78 283.393C279.211 282.317 279.563 280.845 279.563 280.123C279.563 279.4 279.083 277.868 278.495 276.719C277.908 275.569 276.843 274.203 276.128 273.682C275.292 273.073 273.811 272.662 271.967 272.529C269.459 272.348 268.865 272.48 267.172 273.601C265.903 274.441 264.911 275.624 264.28 277.051C263.618 278.548 263.397 279.801 263.569 281.085C263.707 282.109 264.385 283.802 265.076 284.848C265.768 285.893 267.014 287.044 267.846 287.406C268.678 287.767 270.448 288.072 271.779 288.082C273.715 288.097 274.58 287.825 276.099 286.725ZM51.6965 262.17C53.1109 261.773 55.3536 260.749 56.6802 259.895C58.0069 259.041 60.0691 257.291 61.2629 256.007C62.4568 254.723 64.1386 252.24 65.0003 250.489C66.3092 247.831 66.6066 246.611 66.8082 243.077C67.0036 239.649 66.8611 238.228 66.0571 235.588C65.5113 233.796 64.4142 231.307 63.6191 230.056C62.824 228.805 61.1977 226.833 60.0052 225.674C58.8127 224.515 56.2635 222.789 54.3403 221.839C51.3195 220.346 50.2565 220.077 46.529 219.865C43.2767 219.679 41.4549 219.824 39.1296 220.454C37.4329 220.913 34.8228 222.083 33.3293 223.053C31.8358 224.024 29.7194 225.795 28.6263 226.989C27.5331 228.182 26.0888 230.245 25.4166 231.571C24.7444 232.898 23.8574 235.427 23.4454 237.191C22.9348 239.377 22.7972 241.305 23.0133 243.245C23.1877 244.81 23.7186 247.195 24.1933 248.545C24.6679 249.896 25.6993 251.935 26.4852 253.078C27.2712 254.22 28.8421 256.063 29.976 257.173C31.11 258.283 33.5329 259.928 35.3602 260.829C37.1876 261.73 39.8575 262.665 41.2932 262.907C42.729 263.149 45.0785 263.245 46.5143 263.12C47.9501 262.995 50.2821 262.568 51.6965 262.17ZM290.65 241.348C291.475 240.957 292.453 240.156 292.824 239.569C293.195 238.981 294.418 236.631 295.541 234.347C296.665 232.062 298.525 227.897 299.676 225.091C300.826 222.285 302.522 217.64 303.444 214.768C304.366 211.897 305.658 207.411 306.316 204.801C306.974 202.19 307.948 197.812 308.481 195.071C309.015 192.33 309.781 187.524 310.183 184.391C310.586 181.259 311.112 174.744 311.352 169.915C311.625 164.437 311.619 158.284 311.334 153.559C311.084 149.393 310.45 143.092 309.927 139.557C309.403 136.022 308.437 130.898 307.781 128.17C307.126 125.441 306.038 121.383 305.364 119.151C304.69 116.92 303.176 112.531 301.998 109.398C300.821 106.265 298.681 101.144 297.242 98.0174C295.803 94.8907 293.446 90.1918 292.004 87.5753C290.562 84.9588 287.508 80.0414 285.218 76.6477C282.928 73.254 279.173 68.1279 276.872 65.2563C274.572 62.3847 270.027 57.2982 266.772 53.953C263.517 50.6077 258.739 46.1224 256.154 43.9855C253.569 41.8487 248.754 38.1314 245.454 35.725C242.155 33.3186 236.785 29.7591 233.522 27.8149C230.259 25.8707 225.026 22.997 221.893 21.4289C218.76 19.8608 213.955 17.6806 211.214 16.5839C208.473 15.4872 203.797 13.7574 200.823 12.7399C197.849 11.7224 192.937 10.2645 189.906 9.50007C186.876 8.73566 181.94 7.67996 178.938 7.15408C175.936 6.62823 171.344 5.98957 168.733 5.73486C166.123 5.48012 161.424 5.14847 158.291 4.99774C155.158 4.84694 148.961 4.9093 144.52 5.13607C138.484 5.44448 136.051 5.75195 134.887 6.35361C134.031 6.79638 132.914 7.84244 132.404 8.67821C131.847 9.59108 131.477 11.0534 131.476 12.341C131.475 13.5199 131.869 15.2285 132.353 16.1382C132.836 17.0478 133.904 18.2512 134.726 18.8124C136.163 19.7944 136.813 19.8407 152.002 20.0437C166.505 20.2376 168.355 20.3578 174.822 21.5246C178.693 22.2231 183.926 23.3345 186.451 23.9944C188.976 24.6543 193.07 25.8542 195.55 26.6607C198.03 27.4673 202.128 28.9449 204.656 29.9443C207.184 30.9437 211.883 33.0299 215.098 34.5802C218.313 36.1305 223.722 39.0747 227.118 41.1228C230.514 43.1708 235.534 46.4864 238.272 48.4907C241.011 50.495 245.802 54.4463 248.919 57.2715C252.036 60.0968 256.658 64.6894 259.19 67.4774C261.722 70.2655 265.617 74.9644 267.845 77.9196C270.074 80.8747 273.315 85.5352 275.047 88.2763C276.78 91.0173 279.877 96.6774 281.929 100.854C283.981 105.031 286.407 110.478 287.32 112.958C288.233 115.438 289.723 119.923 290.631 122.925C291.54 125.927 292.855 130.94 293.554 134.065C294.253 137.19 295.124 141.996 295.49 144.745C295.856 147.493 296.296 153.267 296.468 157.574C296.659 162.342 296.56 168.284 296.216 172.762C295.904 176.809 295.228 182.789 294.713 186.052C294.197 189.316 293.017 195.083 292.09 198.868C291.163 202.653 289.435 208.634 288.249 212.158C287.064 215.682 284.806 221.449 283.233 224.973C281.511 228.83 280.287 232.278 280.159 233.634C279.987 235.446 280.185 236.295 281.165 237.969C281.976 239.352 283.065 240.386 284.414 241.055C285.531 241.607 287.053 242.06 287.797 242.06C288.54 242.06 289.825 241.74 290.65 241.348ZM21.1331 222.592C21.9845 222.066 23.0442 220.871 23.4878 219.936C24.0448 218.762 24.1958 217.71 23.9756 216.536C23.7901 215.547 22.9972 214.176 22.0803 213.26C20.7566 211.936 20.1576 211.683 18.3429 211.683C17.1544 211.683 15.6913 211.911 15.0916 212.19C14.492 212.469 13.605 213.233 13.1206 213.889C12.6362 214.544 12.128 215.913 11.9914 216.932C11.8529 217.965 12.0159 219.444 12.3597 220.274C12.6989 221.093 13.6342 222.164 14.4382 222.654C15.2422 223.145 16.7291 223.546 17.7425 223.547C18.7642 223.548 20.2746 223.123 21.1331 222.592ZM96.1679 214.861C97.4646 214.204 99.4439 212.671 100.566 211.453C101.688 210.236 103.066 208.241 103.628 207.02C104.417 205.305 104.65 203.884 104.653 200.766C104.657 197.301 104.47 196.35 103.326 194.02C102.572 192.484 101.027 190.448 99.7661 189.326C98.5408 188.237 96.5771 186.896 95.4024 186.347C93.7619 185.581 92.3307 185.349 89.232 185.345C85.7046 185.341 84.852 185.516 82.4476 186.734C80.9351 187.5 78.8423 189.055 77.7968 190.19C76.7514 191.324 75.4447 193.26 74.8931 194.492C74.1611 196.127 73.8789 197.757 73.8482 200.529C73.8142 203.749 74.0084 204.759 75.1372 207.174C75.8692 208.74 77.1507 210.73 77.985 211.596C78.8193 212.461 80.2119 213.61 81.0797 214.148C81.9474 214.686 83.5494 215.419 84.6395 215.777C85.8826 216.185 87.9614 216.359 90.2158 216.242C92.8455 216.106 94.4429 215.736 96.1679 214.861ZM270.726 204.416C271.996 203.067 272.493 201.702 274.225 194.804C275.335 190.382 276.656 184.308 277.16 181.306C277.664 178.304 278.32 172.751 278.619 168.965C278.917 165.18 279.023 159.84 278.854 157.099C278.685 154.358 278.338 150.314 278.082 148.111C277.825 145.908 277.203 142.014 276.699 139.457C276.195 136.901 274.998 132.005 274.039 128.578C272.943 124.66 271.876 121.849 271.167 121.006C270.547 120.269 269.313 119.426 268.424 119.133C267.252 118.746 266.287 118.741 264.904 119.114C263.726 119.431 262.627 120.149 262.025 120.994C261.481 121.758 261.052 123.108 261.052 124.055C261.052 124.987 261.684 127.34 262.457 129.285C263.229 131.229 264.291 134.505 264.817 136.563C265.342 138.622 266.238 143.07 266.808 146.449C267.616 151.238 267.843 154.526 267.84 161.372C267.838 167.85 267.579 171.84 266.854 176.586C266.313 180.124 265.299 185.357 264.599 188.214C263.9 191.072 262.816 194.632 262.19 196.125C261.564 197.618 261.052 199.501 261.052 200.31C261.052 201.118 261.286 202.246 261.571 202.816C261.857 203.386 262.658 204.332 263.351 204.918C264.281 205.704 265.221 205.984 266.929 205.986C268.939 205.988 269.442 205.779 270.726 204.416ZM14.6151 198.871C16.2409 198.134 16.8571 197.488 17.6633 195.678C18.6738 193.41 18.6738 193.409 17.4032 185.815C16.7043 181.638 15.9218 176.299 15.6642 173.949C15.4065 171.6 15.194 165.292 15.1918 159.933C15.1895 154.036 15.4756 147.852 15.9164 144.27C16.3171 141.015 17.1821 135.681 17.8387 132.418C18.4954 129.155 19.6741 124.242 20.4581 121.501C21.2422 118.76 22.736 114.224 23.7777 111.42C24.8195 108.616 26.6993 104.131 27.9551 101.452C29.2109 98.7739 31.4721 94.4467 32.98 91.8362C34.488 89.2257 37.2032 84.8471 39.0139 82.1061C41.8882 77.755 42.2739 76.9152 42.0523 75.4905C41.9128 74.593 41.0683 72.6707 40.1757 71.2188C39.2832 69.7668 37.8563 68.0982 37.005 67.5108C36.0925 66.8812 34.7463 66.4429 33.7251 66.4429C32.3443 66.4429 31.6461 66.8038 30.2819 68.2228C29.3408 69.2017 27.4121 71.8182 25.996 74.0371C24.5799 76.2561 22.5537 79.5667 21.4934 81.3941C20.433 83.2215 18.1615 87.5168 16.4454 90.9392C14.7294 94.3616 12.3786 99.4878 11.2214 102.331C10.0641 105.173 8.36397 109.849 7.44319 112.72C6.52241 115.592 5.23092 120.077 4.5732 122.688C3.91548 125.298 2.94366 129.677 2.4136 132.418C1.88354 135.159 1.12377 140.285 0.725217 143.809C0.307636 147.502 0.000329102 154.341 2.82861e-07 159.95C-0.000336095 165.631 0.299376 172.251 0.719796 175.851C1.116 179.243 1.95934 184.731 2.59387 188.046C3.22842 191.361 4.05712 194.672 4.43544 195.404C4.81376 196.136 5.5253 197.098 6.01663 197.543C6.50797 197.987 7.65117 198.673 8.55709 199.066C9.46301 199.459 10.7382 199.784 11.3908 199.788C12.0435 199.792 13.4944 199.38 14.6151 198.871ZM42.4505 177.911C43.1116 177.609 44.1041 176.43 44.6561 175.29C45.6445 173.248 45.6476 173.15 44.8624 168.878C44.3391 166.03 44.0679 162.079 44.0731 157.378C44.0777 153.44 44.3199 148.295 44.6118 145.945C44.9036 143.596 45.577 139.644 46.1082 137.164C46.6394 134.684 48.0301 129.781 49.1988 126.267C50.3674 122.753 52.4786 117.627 53.8903 114.875C55.3021 112.124 57.2047 108.805 58.1185 107.499C59.0322 106.194 60.4261 104.177 61.216 103.016C62.0059 101.855 62.6521 100.407 62.6521 99.7969C62.6521 99.187 62.3607 97.991 62.0049 97.139C61.6489 96.2871 60.7478 95.1904 60.0023 94.702C59.2066 94.1806 57.8005 93.8139 56.5969 93.8139C55.2926 93.8139 54.088 94.1563 53.2854 94.7557C52.5917 95.2736 50.7734 97.9257 49.2449 100.649C47.7164 103.373 45.4358 107.63 44.1768 110.11C42.9179 112.59 41.1211 116.671 40.184 119.18C39.2468 121.688 37.9262 125.639 37.2492 127.961C36.5723 130.282 35.4526 135.278 34.7611 139.063C33.5901 145.473 33.5053 146.857 33.525 159.235C33.5412 169.427 33.7023 172.964 34.2158 174.406C34.6267 175.56 35.509 176.707 36.4984 177.373C37.3854 177.97 38.8171 178.458 39.6799 178.458C40.5426 178.458 41.7894 178.212 42.4505 177.911ZM220.144 149.395C222.054 148.713 224.804 147.338 226.256 146.338C227.708 145.339 229.896 143.428 231.118 142.091C232.341 140.754 234.111 138.191 235.053 136.395C235.994 134.599 237.103 131.818 237.517 130.214C237.931 128.61 238.266 125.833 238.262 124.043C238.259 122.254 237.931 119.412 237.534 117.729C237.137 116.046 236.144 113.311 235.327 111.651C234.51 109.991 232.489 107.172 230.837 105.388C229.186 103.604 226.768 101.46 225.465 100.624C224.162 99.7881 221.544 98.5757 219.647 97.93C217.564 97.2208 214.601 96.656 212.164 96.5035C209.411 96.3311 206.999 96.4884 204.57 97.0035C202.612 97.4174 199.424 98.5368 197.485 99.4911C195.077 100.677 192.967 102.22 190.824 104.363C189.099 106.088 187.022 108.674 186.209 110.11C185.395 111.546 184.384 113.752 183.963 115.013C183.541 116.274 182.995 118.727 182.749 120.463C182.456 122.531 182.473 124.849 182.797 127.179C183.069 129.136 183.798 131.982 184.416 133.504C185.034 135.025 186.498 137.612 187.668 139.252C188.839 140.893 190.596 142.937 191.573 143.795C192.55 144.653 194.432 146.045 195.756 146.89C197.079 147.734 199.444 148.874 201.01 149.424C202.576 149.973 204.392 150.518 205.044 150.635C205.697 150.752 208.58 150.8 211.452 150.741C215.696 150.655 217.323 150.402 220.144 149.395ZM136.485 120.984C138.075 120.493 140.641 119.27 142.189 118.266C143.736 117.263 145.796 115.558 146.765 114.479C147.735 113.401 149.028 111.709 149.639 110.721C150.25 109.732 151.241 107.749 151.842 106.313C152.595 104.51 153.01 102.362 153.182 99.3711C153.339 96.6553 153.209 94.0885 152.83 92.4888C152.499 91.0857 151.564 88.5537 150.751 86.8621C149.856 84.9989 148.152 82.6448 146.426 80.8898C144.86 79.2965 142.537 77.387 141.264 76.6465C139.99 75.906 137.539 74.9092 135.815 74.4313C133.889 73.8972 131.098 73.5625 128.569 73.5625C125.727 73.5625 123.455 73.8717 121.219 74.5623C119.438 75.1122 116.906 76.2553 115.592 77.1027C114.277 77.95 112.076 79.8415 110.7 81.3061C109.311 82.7845 107.48 85.4655 106.585 87.3336C105.698 89.1842 104.719 92.2035 104.409 94.0431C103.982 96.5713 103.975 98.2746 104.378 101.02C104.709 103.267 105.54 105.976 106.557 108.126C107.624 110.381 109.216 112.657 111.095 114.613C112.892 116.485 115.187 118.252 117.154 119.277C118.895 120.185 121.495 121.161 122.93 121.447C124.366 121.733 125.968 122.06 126.49 122.175C127.012 122.289 128.824 122.269 130.517 122.13C132.209 121.991 134.896 121.475 136.485 120.984ZM249.936 90.1397C250.576 89.5377 251.341 88.2425 251.635 87.2615C252.051 85.8748 252.03 85.1397 251.541 83.9594C251.195 83.1244 247.693 79.1993 243.76 75.237C239.827 71.2748 234.567 66.4145 232.072 64.4364C229.577 62.4583 225.092 59.1987 222.105 57.1929C219.117 55.1871 213.042 51.7608 208.604 49.5791C204.166 47.3974 198.186 44.7528 195.314 43.7023C192.443 42.6518 187.744 41.1464 184.872 40.357C182.001 39.5676 177.12 38.4927 174.027 37.9684C170.934 37.4441 167.828 37.0151 167.126 37.0151C166.423 37.0151 164.576 36.6791 163.02 36.2681C161.464 35.8572 159.319 35.5035 158.253 35.4821C157.152 35.4594 155.671 35.8245 154.82 36.327C153.997 36.813 152.977 37.9424 152.552 38.8367C152.064 39.866 151.879 41.0679 152.048 42.1116C152.195 43.0185 152.649 44.2689 153.056 44.8903C153.463 45.5117 154.363 46.3911 155.055 46.8445C156.077 47.5145 157.521 47.6823 162.761 47.74C167.342 47.7903 170.652 48.113 174.193 48.8543C176.934 49.4281 181.422 50.5195 184.166 51.2796C186.91 52.0396 191.308 53.5009 193.941 54.5267C196.573 55.5526 200.653 57.3595 203.008 58.5419C205.362 59.7244 209.244 61.8651 211.634 63.299C214.024 64.7329 218.485 67.7872 221.547 70.0863C224.61 72.3854 229.503 76.5784 232.421 79.4041C235.34 82.2298 238.616 85.6936 239.702 87.1014C240.788 88.5092 242.352 90.106 243.177 90.6499C244.293 91.386 245.201 91.5872 246.724 91.4365C247.996 91.3107 249.212 90.82 249.936 90.1397ZM78.2682 69.501C79.9765 69.1049 82.8752 68.0486 84.7098 67.1539C86.5444 66.2591 89.4596 64.4552 91.1881 63.1451C92.9165 61.835 95.4387 59.4246 96.7929 57.7886C98.1471 56.1526 100.191 52.8918 101.335 50.5423C102.516 48.1162 103.734 44.6899 104.155 42.6121C104.562 40.5999 104.895 37.4683 104.895 35.6529C104.895 33.8375 104.587 30.7399 104.21 28.7694C103.833 26.7989 103.001 23.8905 102.361 22.3063C101.721 20.7221 100.481 18.2351 99.6051 16.7796C98.7294 15.3241 96.8033 12.8079 95.3248 11.1883C93.8463 9.56855 91.1764 7.26523 89.3918 6.0698C87.6071 4.87438 84.8132 3.33622 83.1831 2.65171C81.553 1.96724 78.8831 1.09217 77.2501 0.70711C75.617 0.322089 72.1257 0.00389032 69.4917 3.52014e-05C66.2237 -0.00374433 63.5144 0.296728 60.962 0.94968C58.9046 1.47587 55.7395 2.65916 53.9284 3.57929C52.1173 4.49937 49.2945 6.31922 47.6555 7.62342C46.0165 8.92758 43.8079 11.031 42.7474 12.2976C41.6869 13.5643 39.9597 16.0662 38.9091 17.8576C37.8585 19.6489 36.4308 22.8233 35.7364 24.9117C34.6293 28.2412 34.47 29.4979 34.4424 35.1165C34.4155 40.5637 34.5775 42.0577 35.5225 45.0839C36.1338 47.0418 37.3916 50.0914 38.3174 51.8608C39.2433 53.6302 41.389 56.5773 43.0858 58.4099C44.7825 60.2426 47.4762 62.6673 49.0717 63.7984C50.6672 64.9294 53.0406 66.3847 54.3459 67.0324C55.6512 67.6801 57.7947 68.562 59.1093 68.9921C60.4238 69.4222 62.7733 69.9733 64.3303 70.2168C65.8873 70.4602 68.9614 70.5612 71.1617 70.4406C73.362 70.32 76.5599 69.8972 78.2682 69.501ZM62.9128 55.0237C61.3594 54.4752 58.9539 53.2734 57.5673 52.353C56.1807 51.4326 54.2884 49.7944 53.3622 48.7124C52.436 47.6304 50.9969 45.3613 50.1642 43.67C48.7395 40.7763 48.6502 40.2861 48.6502 35.3638C48.6502 30.4924 48.7514 29.9207 50.1229 27.0476C50.9328 25.3507 52.4573 22.9275 53.5106 21.6626C54.5638 20.3977 56.4613 18.6263 57.7273 17.7263C58.9932 16.8263 61.4869 15.6471 63.2689 15.1058C65.8371 14.3257 67.4133 14.1614 70.8696 14.3131C74.5443 14.4745 75.7413 14.7439 78.48 16.0263C80.6677 17.0506 82.6301 18.4679 84.4838 20.3624C86.0319 21.9445 87.8891 24.5 88.7254 26.1986C89.5436 27.8607 90.4335 30.6366 90.7029 32.3674C91.045 34.5647 91.0393 36.3443 90.6841 38.2644C90.4044 39.7769 89.5464 42.359 88.7774 44.0025C88.0083 45.6459 86.2633 48.1704 84.8996 49.6123C83.2402 51.3668 81.2452 52.8147 78.8681 53.9895C75.585 55.6121 74.9536 55.7554 70.5265 55.883C66.626 55.9952 65.2129 55.8357 62.9128 55.0237ZM75.3168 45.6354C76.3934 45.0862 77.9417 43.8297 78.7576 42.8432C79.5736 41.8567 80.5554 39.9962 80.9394 38.7088C81.3235 37.4214 81.6378 35.8049 81.6378 35.1165C81.6378 34.4281 81.3165 32.783 80.9238 31.4607C80.4717 29.9383 79.5214 28.347 78.3329 27.1224C77.3005 26.0586 75.5479 24.7251 74.4382 24.1589C73.0544 23.453 71.5157 23.121 69.5412 23.1025C67.2417 23.0798 66.1624 23.3474 64.1804 24.4261C62.8155 25.169 61.1287 26.524 60.4321 27.4373C59.7355 28.3506 58.8915 29.8646 58.5565 30.8019C58.2216 31.7391 57.9392 33.5739 57.9292 34.8792C57.9179 36.1844 58.1378 38.0684 58.4146 39.0659C58.6916 40.0633 59.6888 41.7324 60.6308 42.7751C61.5728 43.8177 62.9989 45.0097 63.8 45.424C64.601 45.8382 65.7919 46.3528 66.4462 46.5675C67.1005 46.7822 68.9236 46.885 70.4977 46.7958C72.1822 46.7005 74.1647 46.2232 75.3168 45.6354ZM120.439 21.1508C121.709 19.7656 121.982 19.0834 121.982 17.3008C121.982 16.1093 121.673 14.5359 121.295 13.8045C120.916 13.0731 120.07 12.1226 119.413 11.6922C118.756 11.2619 117.371 10.9098 116.334 10.9098C115.298 10.9098 113.902 11.118 113.233 11.3726C112.563 11.6273 111.576 12.5349 111.039 13.3898C110.289 14.5855 110.106 15.5176 110.247 17.4287C110.363 18.9989 110.766 20.2892 111.341 20.9347C111.842 21.4966 112.893 22.2502 113.676 22.6096C114.478 22.9773 115.929 23.1693 116.998 23.0487C118.41 22.8892 119.292 22.403 120.439 21.1508Z" fill="black"/>
</svg>
